<svg xmlns="http://www.w3.org/2000/svg" width="72.562" height="11.25"><path fill="#fff" d="M51.568 3.627c.199 0 .37-.03.513-.092.143-.061.261-.141.354-.239s.162-.211.205-.337c.043-.126.064-.256.064-.39 0-.146-.026-.272-.079-.378s-.124-.192-.214-.257-.195-.113-.316-.145-.25-.047-.387-.047c-.219 0-.401.035-.548.104s-.264.154-.352.254-.151.208-.19.322-.059.217-.059.308c0 .272.082.49.246.653.166.162.42.244.763.244zM59.771 3.627c.199 0 .37-.03.513-.092.143-.061.261-.141.354-.239s.162-.211.205-.337c.043-.126.064-.256.064-.39 0-.146-.026-.272-.079-.378s-.124-.192-.214-.257-.195-.113-.316-.145-.25-.047-.387-.047c-.219 0-.401.035-.548.104s-.264.154-.352.254-.151.208-.19.322-.059.217-.059.308c0 .272.082.49.246.653.166.162.42.244.763.244zM71.443 8.209c-.25.16-.381.238-.393.234l-.27.193c-.035.035-.117.076-.246.123l-.199.053c-.129 0-.224-.078-.284-.234s-.091-.355-.091-.598l.026-.475.067-.521.091-.598.091-.545.067-.363.026-.217c0-.289-.058-.516-.173-.68s-.271-.246-.466-.246-.373.039-.533.117-.303.223-.428.434l-.123.217-.182.337-.214.398s-.147.298-.214.478l-.176.257-.111.052h-.117l.018-.005.044-.285.056-.395.056-.35.044-.318.018-.232c0-.215-.041-.384-.123-.513s-.229-.192-.439-.192-.378.061-.501.182-.206.271-.249.451c-.055.23-.111.508-.17.833l-.025.153-.177-.218c-.244-.293-.508-.536-.791-.729s-.587-.348-.911-.463-.672-.173-1.043-.173c-.434 0-.824.079-1.172.237s-.642.375-.882.65-.425.6-.554.973-.193.817-.193 1.333c0 .242.041.48.084.718l-.26.217c-.176.139-.35.257-.521.354s-.328.147-.468.147c-.121 0-.201-.052-.24-.155s-.059-.243-.059-.418c0-.18.028-.379.084-.599.057-.22.103-.441.14-.664.037-.222.106-.491.207-.807.101-.315.177-.573.228-.774l.137-.537s.06-.278.06-.364c0-.102-.029-.183-.086-.243s-.167-.091-.328-.091l-.296.033c-.109.021-.215.055-.316.101-.102.045-.193.104-.273.175-.088.079-.142.168-.162.267-.035.141-.126.444-.274.911-.16.572-.266.942-.319 1.109-.03.078-.097.426-.197 1.022l-.413.21-.507.24s-.313.163-.454.258c0-.253.011-.503.032-.752s.018-.444-.012-.586l-.092-.376-.093-.308-.072-.296-.027-.334.138-.199.255-.293.246-.332c.074-.114.111-.219.111-.313l-.012-.169c-.008-.065-.035-.127-.082-.187s-.121-.11-.223-.151c-.102-.042-.246-.062-.434-.062-.113 0-.216.017-.308.05l-.252.13-.208.181-.17.207c-.25.316-.453.58-.609.791l-.398.536-.284.379-.325.412s-.273.315-.41.441l-.533.474-.141.113-.188.166-.164.216-.054.203-.357.243c-.173.093-.329.142-.469.142-.121 0-.201-.052-.24-.155s-.059-.243-.059-.419c0-.18.028-.379.084-.599.057-.22.103-.441.14-.664.037-.222.106-.491.207-.807.101-.315.177-.573.228-.774l.137-.537s.06-.278.06-.364c0-.102-.029-.183-.086-.243s-.167-.091-.328-.091l-.296.033c-.109.021-.215.055-.316.101-.102.045-.193.104-.273.175-.088.079-.142.168-.162.267-.035.141-.126.444-.274.911-.16.572-.266.942-.319 1.109-.026.068-.082.35-.163.821l-.231.108c-.154.061-.29.091-.407.091-.16 0-.291-.021-.393-.064s-.182-.101-.24-.173-.1-.153-.123-.243l-.035-.276.021-.261.05-.226.07-.217.299-.732.188-.381c.047-.094.086-.201.117-.322.031-.098.047-.201.047-.311 0-.145-.068-.263-.205-.354s-.318-.138-.545-.138l-.243.035-.208.091-.152.132-.076.158-1.6 3.908-.04.006.111-3.885-.086-.119c-.055-.078-.132.033-.231.033h-.062l-.056-.139-.749.037c-.133.02-.219.104-.258.329s-.059.578-.059 1.097l.006.448.021.482.032.586.015.301-.141.116c-.219.163-.451.312-.697.45-.246.138-.499.252-.759.343-.26.092-.507.138-.741.138l-.209-.023-.185-.08-.174-.161-.173-.258c.341-.092.657-.22.948-.384s.543-.352.754-.562c.211-.21.396-.462.555-.756.159-.294.238-.56.238-.796 0-.222-.039-.423-.117-.603-.078-.18-.187-.333-.326-.459s-.302-.225-.49-.295c-.188-.07-.391-.105-.61-.105-.268 0-.512.047-.731.142-.219.095-.417.222-.594.382s-.331.345-.463.555c-.132.21-.242.431-.329.662s-.172.497-.253.795c-.082.299-.123.556-.123.772 0 .33.045.645.137.945l.082.203-.046.038c-.162.113-.326.211-.492.293s-.328.146-.486.19-.304.067-.437.067c-.14 0-.252-.044-.335-.133-.083-.089-.152-.207-.208-.354-.055-.148-.106-.314-.154-.5l-.134-.581c-.041-.201-.104-.418-.188-.652-.084-.233-.188-.448-.309-.644-.122-.196-.274-.374-.456-.533-.182-.159-.408-.289-.679-.39.449-.026.853-.089 1.211-.189s.679-.225.96-.374c.281-.149.521-.318.723-.506.201-.188.366-.383.495-.585.128-.202.224-.407.287-.615s.094-.406.094-.594c0-.289-.047-.557-.141-.803s-.221-.47-.383-.671-.355-.38-.58-.536c-.224-.156-.467-.287-.729-.393-.261-.105-.537-.186-.825-.24s-.581-.081-.873-.081c-.661 0-1.288.088-1.881.264-.592.176-1.14.421-1.643.735-.503.314-.956.688-1.358 1.119-.403.432-.746.905-1.03 1.421s-.501 1.063-.651 1.644c-.151.58-.226 1.173-.226 1.778 0 .334.026.67.079 1.008-.18.127-.363.252-.562.362-.246.138-.499.252-.759.344-.26.092-.507.138-.741.138l-.209-.023-.185-.08-.174-.161-.173-.258c.341-.092.657-.22.948-.384s.543-.352.754-.562c.211-.21.396-.462.555-.756.159-.294.238-.56.238-.796 0-.222-.039-.423-.117-.603-.078-.179-.187-.332-.326-.459s-.302-.225-.49-.295c-.187-.071-.39-.106-.61-.106-.268 0-.512.047-.731.142-.219.095-.417.222-.594.382s-.331.345-.463.555c-.132.21-.242.431-.329.662s-.172.497-.253.795c-.082.299-.123.556-.123.772l.027.382-.302.154-.507.24s-.313.163-.454.258c0-.253.011-.503.032-.752s.018-.444-.012-.586l-.092-.376-.093-.308-.072-.296-.027-.334.138-.199.255-.294.246-.332c.074-.114.111-.219.111-.313l-.012-.169c-.008-.065-.035-.127-.082-.187s-.121-.11-.223-.151c-.102-.042-.246-.062-.434-.062-.113 0-.216.017-.308.05l-.252.13-.208.181-.17.207c-.25.316-.453.58-.609.791l-.398.536-.284.379-.325.412-.039.042.044-.683c-.176.145-.355.273-.539.387-.156.098-.328.186-.516.264s-.369.117-.545.117l-.179-.035-.152-.12-.108-.226s-.041-.211-.041-.352l.029-.308.094-.472.094-.466.029-.278c0-.086-.016-.163-.047-.231l-.126-.173-.185-.108-.217-.038c-.215 0-.404.058-.568.173s-.311.257-.439.425-.252.609-.369.863-.215-.154-.293.846h-.064c-.008-1-.002-.662.018-.928l.029-.73-.009-.345-.05-.19-.126-.084-.237-.022-.226.011-.152.057-.108.119-.094.205c-.051.129-.102.292-.152.492l-.182.747s-.128.58-.173.844l-.117.776-.049.453-.036.03c-.131.102-.269.199-.413.291l-.425.247c-.139.073-.27.13-.393.174-.123.043-.228.064-.313.064-.067 0-.119-.019-.154-.056l-.079-.159-.03-.241-.005-.303.042-.326.097-.524.141-.757.145-.78s.063-.413.07-.595l.011-.431c0-.109-.057-.199-.17-.27-.113-.07-.266-.105-.458-.105-.17 0-.322.032-.456.097s-.21.144-.229.237l-.646 3.193c-.031.163-.079.307-.141.43-.063.127-.135.231-.218.31-.078.088-.163.154-.253.2-.09.045-.178.068-.265.068l-.153-.048-.105-.127-.062-.178-.021-.209.03-.174.079-.442.131-.726.148-.823.132-.734c.044-.243.083-.496.119-.76 0-.084-.045-.155-.135-.212s-.238-.091-.445-.101c-.125.004-.237.037-.337.1s-.187.143-.261.24-.139.207-.193.328l-.138.357-.083.324-.042.229-.109-.133c-.244-.293-.508-.536-.791-.729s-.587-.348-.911-.463-.672-.173-1.043-.173c-.434 0-.824.079-1.172.237s-.642.375-.882.65-.425.6-.554.973-.193.818-.193 1.333l.024.208-.034.039c-.207.211-.425.404-.653.58s-.457.321-.683.436-.434.173-.621.173c-.191 0-.347-.042-.467-.126-.12-.084-.219-.189-.295-.316s-.126-.267-.151-.419c-.025-.153-.038-.299-.038-.44l.012-.349s.028-.284.061-.436c.033-.152.088-.341.167-.565.077-.225.156-.399.236-.522.08-.123.176-.223.289-.299s.249-.114.409-.114c.066 0 .108.031.128.094l.028.234-.006.211-.105.434c-.035.117-.005.252.09.404.058.098.186.146.383.146.131 0 .249-.031.352-.094s.21-.181.32-.354c.11-.174.184-.325.222-.454s.057-.26.057-.393c0-.191-.041-.37-.122-.536s-.193-.31-.336-.431c-.144-.12-.316-.215-.518-.283s-.421-.103-.658-.103c-.263 0-.504.048-.725.144-.22.096-.419.225-.598.387s-.335.35-.47.565c-.136.215-.25.44-.342.677s-.178.512-.256.829-.118.588-.118.814c0 .316.047.621.142.914s.233.551.419.774c.185.223.414.4.687.533.273.133.591.199.953.199.206 0 .41-.032.611-.097s.395-.148.58-.252.363-.222.533-.354.327-.27.472-.41l.222-.237c.067.191.146.373.251.536.155.242.356.438.6.588s.538.226.882.226c.238 0 .463-.041.674-.123s.405-.193.583-.334.335-.307.474-.498.256-.396.352-.615.169-.445.22-.68.075-.467.075-.697c0-.316-.028-.601-.085-.853s-.141-.491-.254-.718l.047-.064.504.349s.394.308.595.507l.4.381c-.062.354-.126.652-.193.879-.074.274-.113.666-.117 1.177 0 .246.025.452.076.618.05.166.119.3.207.401.087.102.188.174.3.217s.233.064.362.064c.156 0 .318-.032.484-.095.167-.064.331-.151.493-.263.162-.112.321-.244.478-.396.156-.152.305-.319.446-.5.039.178.083.338.135.482.052.145.115.269.19.373.075.104.165.185.268.243.104.058.229.086.375.086.143 0 .299-.02.466-.061.168-.041.339-.095.515-.162s.351-.146.524-.234c.174-.089.338-.181.492-.278l.109-.075.006.097c.018.146.053.277.105.393s.128.207.226.275.227.103.387.103l.193-.038.164-.132.149-.243s.101-.118.155-.271l1.049-2.816h.094c.031 0 .072.382.123.622s.129.403.234.597.248.323.428.442.416.166.709.166c.125 0 .246-.034.367-.062l-.02.023c-.047.081-.07.167-.07.262l.035.245.094.124.141.044.176.006.155-.006.161-.024c.02.202.076.374.17.516s.216.257.366.345.325.152.524.193.414.062.645.062c.32 0 .659-.035 1.017-.104s.712-.165 1.063-.285c.351-.121.686-.26 1.004-.418l.407-.223.148.229c.183.229.411.411.684.546s.593.203.958.203c.234 0 .466-.027.695-.082s.449-.126.662-.217c.213-.09.416-.194.609-.311.185-.111.356-.225.518-.34.088.234.178.469.296.68.156.277.339.52.548.727s.443.37.703.489.546.179.858.179c.395 0 .728-.125 1-.376s.499-.614.68-1.088c.181-.475.326-1.122.436-1.803.109-.68.225-1.357.345-2.357h.408c.168 0 .308.141.42.281.112.141.207.368.284.612.077.245.15.542.218.859l.19.894c.059.273.135.562.229.856s.212.56.354.79c.142.23.313.417.516.558.202.141.447.211.733.211.253 0 .502-.027.747-.082s.476-.123.694-.205.419-.171.601-.267l.472-.264.131-.084.215.136c.273.135.593.203.958.203.234 0 .466-.027.695-.082s.449-.126.662-.217c.213-.09.416-.194.609-.311s.374-.235.542-.356l.032-.026c.022.155.047.31.097.446.064.176.164.321.297.437s.321.173.562.173c.125 0 .264-.063.415-.19.151-.127.304-.29.458-.489s.304-.422.448-.668.273-.486.387-.721c.004.148.038.291.103.428s.154.26.27.369.256.196.422.261.354.097.565.097c.245 0 .503-.048.772-.142l.034.297c.037.146.099.271.185.372s.198.181.337.237.31.085.513.085c.227 0 .466-.041.718-.123s.499-.185.741-.308.468-.258.677-.404l.174-.137c.027.158.063.308.14.425.094.142.216.257.366.345s.325.152.524.193.414.062.645.062c.32 0 .659-.035 1.017-.104s.712-.165 1.063-.285c.351-.121.686-.26 1.004-.418l.087-.048.013.109c.037.146.099.271.185.372s.198.181.337.237.31.085.513.085c.227 0 .466-.041.718-.123s.499-.185.741-.308.468-.258.677-.404l.127-.1.063.121c.156.242.356.438.601.589s.538.226.882.226c.238 0 .463-.041.674-.123s.405-.193.583-.334.336-.307.475-.498.256-.396.352-.615.169-.445.22-.68.076-.467.076-.697c0-.316-.028-.601-.085-.853s-.142-.491-.255-.718l.047-.064.504.349s.394.308.595.507l.477.455-.005.04c-.047.404-.086.775-.117 1.113s-.05.633-.05.89c0 .156.009.308.026.454s.053.277.105.393.128.207.226.275.227.103.387.103c.129 0 .242-.029.34-.088.094-.055.182-.183.264-.347l1.535-3.065h.094c-.047 0-.086.623-.117.895s-.047.534-.047.768c0 .598.073 1.056.22 1.367s.327.468.542.468.42-.03.615-.092c.074-.02.264-.097.568-.234.125-.055.436-.215.932-.48l.551-.304.293-.223.006-1.312c-.434.288-.807.532-1.12.731zm-63.922-.665c-.057.291-.132.539-.226.744s-.203.375-.328.51-.254.202-.387.202c-.152 0-.283-.032-.392-.097s-.198-.15-.264-.257-.115-.234-.147-.378-.047-.299-.047-.463c0-.324.031-.615.094-.873s.148-.493.258-.706.236-.388.381-.524.297-.206.457-.206c.121 0 .225.033.311.1s.156.156.211.27.096.247.123.401.041.321.041.501c-.001.226-.029.485-.085.776zm15.301 1.119c-.023.113-.064.211-.123.296s-.138.153-.237.204c-.1.052-.226.077-.378.077-.125 0-.236-.03-.334-.089l-.258-.195-.196-.195c-.057-.06-.108-.089-.155-.089l1.623-1.706.067.228s.029.215.012.379c-.018.164-.02.301-.006.412l.021.326c-.001.122-.012.239-.036.352zm4.002-1.632c.008-.119.044-.27.109-.453l.17-.461c.049-.124.114-.235.194-.332.08-.098.18-.177.3-.238s.264-.092.432-.092c.094 0 .174.055.238.166.065.111.097.252.097.424 0 .122-.069.277-.206.464s-.277.336-.42.447-.298.202-.464.272c-.167.07-.321.106-.462.106l.012-.303zm8.282-2.39l.055-.872s-.036-.454-.036-.606v-.055c0-.141.135-.256.07-.347-.065-.09-.112-.136-.309-.136-.15 0-.235.032-.339.097-.104.064-.172.148-.247.252s-.124.219-.17.346c-.045.127-.074.253-.098.378l-.047.334-.02.275-.005-.01-.148.005-.246.011-.255.012-.162.005-.148.055-.084.132-.038.168-.009.155c0 .156.078.293.234.412.156.119.385.247.686.384l-.014.385-.046.578-.07.703-.074.746c-.024.247-.066.484-.125.713s-.127.43-.205.604-.168.312-.27.416-.219.155-.352.155c-.262 0-.485-.079-.671-.237s-.337-.364-.454-.618-.203-.54-.258-.858-.082-.636-.082-.952c0-.41.038-.842.114-1.295.077-.453.199-.9.367-1.342.168-.441.387-.863.657-1.266s.597-.756.98-1.061c.384-.305.829-.547 1.336-.727s1.083-.27 1.729-.27c.351 0 .659.04.924.12s.487.188.667.322.315.29.407.466c.091.176.137.359.137.551 0 .202-.051.411-.154.626-.103.216-.281.415-.536.596s-.6.332-1.036.45c-.432.122-.985.187-1.655.2zm6.238 2.39c.008-.119.044-.27.109-.453l.17-.461c.049-.124.114-.235.194-.332.08-.098.18-.177.3-.238s.264-.092.432-.092c.094 0 .174.055.238.166.065.111.097.252.097.424 0 .122-.069.277-.206.464s-.277.336-.42.447-.298.202-.464.272c-.167.07-.321.106-.462.106l.012-.303zm13.67 1.632c-.023.113-.064.211-.123.296s-.138.153-.237.204c-.1.052-.226.077-.378.077-.125 0-.236-.03-.334-.089l-.258-.195-.196-.195c-.057-.06-.108-.089-.155-.089l1.623-1.706.067.228s.029.215.012.379c-.018.164-.02.301-.006.412l.021.326c-.001.122-.013.239-.036.352zm8.686-1.119c-.057.291-.132.539-.226.744s-.203.375-.328.51-.253.202-.386.202c-.152 0-.283-.032-.393-.097s-.197-.15-.264-.258-.115-.233-.146-.378-.047-.298-.047-.462c0-.324.031-.615.094-.873s.148-.493.258-.706.236-.388.381-.524.297-.205.457-.205c.121 0 .225.033.311.1s.156.156.211.27.096.247.123.401.041.321.041.501c-.001.225-.029.484-.086.775z"/></svg>